# xmcd CD database file
#
# Track frame offsets:
#	150
#	29919
#	57055
#	83112
#	107092
#	130691
#	162385
#	192404
#
# Disc length: 2773 seconds
#
# Revision: 0
# Processed by: cddbd v1.5.2PL0 Copyright (c) Steve Scherf et al.
# Submitted via: CDex 1.51
#
DISCID=690ad308
DTITLE=Laura Macdonald and Martina Almgren - Open Book
DYEAR=2008
DGENRE=Jazz
TTITLE0=The Land Of Beauty
TTITLE1=Juliett
TTITLE2=Tango
TTITLE3=Open Book
TTITLE4=The Saddest Song
TTITLE5=Blowfish
TTITLE6=Indecision
TTITLE7=And A Happy New Year08
EXTD=YEAR: 2008
EXTT0=
EXTT1=
EXTT2=
EXTT3=
EXTT4=
EXTT5=
EXTT6=
EXTT7=
PLAYORDER=
